<?xml version="1.0" standalone="no"?><!DOCTYPE svg PUBLIC "-//W3C//DTD SVG 1.1//EN"
    "http://www.w3.org/Graphics/SVG/1.1/DTD/svg11.dtd">
<svg t="1609255662821" class="icon" viewBox="0 0 4124 1024" version="1.1" xmlns="http://www.w3.org/2000/svg" p-id="3175"
     width="805.46875" height="200">
    <defs>
        <style type="text/css"></style>
    </defs>
    <path
        d="M52.212931 0h4020.395676a52.212931 52.212931 0 0 1 52.212931 52.212931v919.574138a52.212931 52.212931 0 0 1-52.212931 52.212931H52.212931a52.212931 52.212931 0 0 1-52.212931-52.212931V52.212931a52.212931 52.212931 0 0 1 52.212931-52.212931z"
        fill="#38C2FF" p-id="3176"></path>
    <path
        d="M540.038344 379.483581c-26.654701 0-47.879258 20.702427-47.879258 46.730574v194.675912c0 26.028146 21.224556 46.730573 47.879258 46.730573 26.654701 0 47.879258-20.702427 47.879257-46.730573v-194.675912c0-26.028146-21.19845-46.730573-47.879257-46.730574z m65.709973 310.118703c0 27.907812 23.025903 50.385478 51.612483 50.385479h34.251682v103.068325c0 26.028146 21.224556 46.730573 47.879258 46.730573 26.654701 0 47.879258-20.702427 47.879257-46.730573v-103.068325h63.778095v103.068325c0 26.028146 21.224556 46.730573 47.879258 46.730573 26.654701 0 47.879258-20.702427 47.879258-46.730573v-103.068325h34.251682c28.58658 0 51.612482-22.477667 51.612482-50.385479V387.498266H605.748317v302.104018z m492.681216-310.118703c-26.654701 0-47.879258 20.702427-47.879258 46.730574v194.675912c0 26.028146 21.224556 46.730573 47.879258 46.730573 26.654701 0 47.879258-20.702427 47.879258-46.730573v-194.675912c-0.026106-26.028146-21.224556-46.730573-47.879258-46.730574z m-174.495615-175.93147l33.729553-59.470528a6.343871 6.343871 0 0 0-2.636753-9.006731 6.526616 6.526616 0 0 0-3.237201-0.861513 6.657149 6.657149 0 0 0-6.004487 3.446053l-34.173364 60.12319c-27.960024-12.1134-59.287783-18.901081-92.390781-18.901081s-64.430757 6.787681-92.390781 18.901081l-34.173363-60.12319a6.709362 6.709362 0 0 0-6.004487-3.446053 6.604936 6.604936 0 0 0-3.237202 0.861513 6.343871 6.343871 0 0 0-2.636753 9.006731l33.729553 59.470528c-64.874567 32.946359-108.707322 95.601876-108.785641 167.472976h426.997348c-0.078319-71.871099-43.911075-134.50051-108.785641-167.472976z m-203.238833 91.189884a17.72629 17.72629 0 0 1-17.80461-17.386906c0-9.502753 8.066898-17.386906 17.80461-17.386906 9.737712 0 17.804609 7.884153 17.804609 17.386906a17.72629 17.72629 0 0 1-17.804609 17.386906z m197.077707 0a17.72629 17.72629 0 0 1-17.804609-17.386906c0-9.502753 8.066898-17.386906 17.804609-17.386906 9.737712 0 17.804609 7.884153 17.80461 17.386906a17.72629 17.72629 0 0 1-17.80461 17.386906z"
        fill="#FFFFFF" p-id="3177"></path>
    <path
        d="M1665.514175 386.819498l87.978788 223.549664H1725.637365l-23.809097-62.603304h-102.702835l-23.78299 62.603304h-27.568427l87.978788-223.549664h29.761371z m28.168876 139.330206l-42.266367-111.787885h-1.253111l-42.919029 111.787885h86.438507zM1909.21803 510.799103v99.570059h-25.062207v-97.690394c0-31.61493-14.410769-47.278809-42.579645-47.278809a39.681827 39.681827 0 0 0-29.108709 12.217826c-8.771772 8.745666-13.470936 20.336937-14.410769 35.060983v97.690394h-25.062207v-161.886192h25.062207v23.809096c5.638997-9.08505 12.818275-15.977157 21.590047-20.676321a57.643076 57.643076 0 0 1 29.108709-7.518662c40.073424 0.026106 60.462574 22.242709 60.462574 66.70202zM2092.772588 382.433612v227.93555h-23.469712v-26.628595c-11.277993 20.676321-29.421987 31.014481-53.831532 31.014481-23.78299 0-42.266368-8.771772-55.424026-25.662656-12.217826-15.663879-18.143993-35.687538-18.143994-60.123189 0-23.809096 5.952274-43.2062 18.143994-58.87008 13.157659-17.543545 31.014481-26.00204 54.170916-26.00204s41.013257 11.277993 53.54436 34.147257v-95.810728h25.009994z m-113.328166 101.136447c-8.145217 10.964715-11.904548 26.00204-11.904548 45.399144s3.759331 34.747705 11.565164 46.025698c8.771772 12.531103 21.929431 19.109933 39.472975 19.109933 16.264328 0 28.821538-6.265552 37.880482-18.796655 7.83194-11.277993 11.878442-26.00204 11.878442-44.146033v-3.132776c0-18.796655-4.699164-34.12115-13.470937-45.712421a42.344687 42.344687 0 0 0-35.348154-17.543545c-17.830716 0-31.327759 6.265552-40.073424 18.796655zM2225.001836 447.882521v25.0361a81.478279 81.478279 0 0 0-24.096268-3.446053c-12.531103 0-23.182541 5.325719-31.641036 16.603712-8.771772 10.651438-12.818275 23.469712-12.818275 38.507036v85.785846h-24.748929v-161.886192h24.748929v28.194982c4.385886-9.398328 10.024883-16.91699 16.890884-22.242708a44.929227 44.929227 0 0 1 29.421986-10.338161c8.797879 0.026106 16.316541 1.279217 22.242709 3.785438zM2376.288803 469.15929c13.784214 15.977157 20.676321 36.000816 20.67632 60.436468 0 24.096268-6.892107 44.146033-20.336936 59.809912-14.69794 16.91699-34.147257 25.375484-58.243525 25.375484-24.435652 0-43.519478-8.458495-57.930246-25.375484-13.758107-15.663879-20.650214-35.687538-20.650214-59.809912 0-24.435652 6.892107-44.459311 20.650214-60.436468 14.410769-16.890883 33.494595-25.0361 57.930246-25.0361 24.096268 0 43.545584 8.145217 57.904141 25.0361z m-98.003671 15.663879c-8.745666 11.904548-12.818275 26.628595-12.818275 44.772589 0 17.856822 4.072609 32.554762 12.818275 44.45931 9.398328 13.131552 22.869264 19.710381 40.073424 19.710382 16.91699 0 30.387926-6.578829 40.412808-19.710382 8.432388-11.904548 12.818275-26.941872 12.818275-44.45931 0-18.1701-4.385886-32.86804-12.818275-44.772589-10.024883-13.131552-23.469712-19.710381-40.412808-19.710381-17.204161-0.026106-30.64899 6.552723-40.073424 19.710381zM2463.771568 392.771772c3.759331 3.132776 5.638997 7.518662 5.638997 13.157659a18.222313 18.222313 0 0 1-5.638997 13.470936c-3.759331 3.446053-8.145217 5.325719-13.470936 5.325719s-9.711605-1.879666-13.470936-5.325719a17.935142 17.935142 0 0 1-5.325719-13.470936c0-5.638997 1.592494-10.024883 5.325719-13.157659 3.759331-3.759331 8.145217-5.325719 13.470936-5.325719s9.711605 1.566388 13.470936 5.325719z m-0.939832 55.711198v161.886192h-25.036101v-161.886192h25.036101zM2654.479298 382.433612v227.93555h-23.469712v-26.628595c-11.277993 20.676321-29.421987 31.014481-53.831532 31.014481-23.78299 0-42.266368-8.771772-55.424026-25.662656-12.217826-15.663879-18.143993-35.687538-18.143993-60.123189 0-23.809096 5.952274-43.2062 18.143993-58.87008 13.157659-17.543545 31.014481-26.00204 54.170916-26.00204s41.013257 11.277993 53.544361 34.147257v-95.810728h25.009993z m-113.328166 101.136447c-8.145217 10.964715-11.904548 26.00204-11.904548 45.399144s3.759331 34.747705 11.565164 46.025698c8.771772 12.531103 21.929431 19.109933 39.472976 19.109933 16.264328 0 28.795431-6.265552 37.880481-18.796655 7.83194-11.277993 11.878442-26.00204 11.878442-44.146033v-3.132776c0-18.796655-4.699164-34.12115-13.470936-45.712421a42.344687 42.344687 0 0 0-35.348155-17.543545c-17.856822 0-31.327759 6.265552-40.073424 18.796655zM2786.708546 358.024067v82.966347h18.483377v22.242709h-73.907403v15.95105c0 9.711605-0.313278 19.109933-0.600449 28.194983h60.12319v133.064654h-22.242709v-111.474607h-39.133591c-3.785437 46.965531-12.217826 82.65307-25.662656 107.689169l-16.890883-15.037324c14.384662-29.735264 21.903324-77.327351 22.216602-142.462982v-114.894554h22.242709v76.700796h33.520701v-82.966348h21.851112z m56.990414 143.089537c-1.25311 58.217418-11.565164 104.582501-30.361819 139.016928l-15.66388-16.577605c15.663879-29.421987 24.122374-70.46135 25.375485-122.413217v-124.318988c49.158474-0.626555 93.617785-7.205384 133.064654-19.710381l11.304099 20.363043c-36.966755 10.651438-78.29329 16.890883-123.692433 18.770548v49.158475h115.860494v19.083826c-7.205384 43.519478-20.989598 80.146849-41.013257 109.882113a157.83969 157.83969 0 0 0 56.337752 47.592086l-11.277993 19.710382a172.720375 172.720375 0 0 1-58.87008-49.158475 215.769937 215.769937 0 0 1-61.663471 49.471752l-10.964715-20.049765a205.666735 205.666735 0 0 0 59.470528-48.531919c-17.856822-29.134815-30.361819-64.822354-37.541097-106.775444h-10.338161v34.486641z m61.689578 53.204976c15.663879-25.0361 26.628595-54.484193 32.241484-87.66551h-63.255965c6.892107 34.12115 17.230267 63.255966 31.014481 87.66551zM3282.835815 371.155619v22.242709h-135.884153v47.278808a1286.030594 1286.030594 0 0 1 118.366715 67.641852l-13.470937 20.049766c-41.665919-27.568427-76.700795-48.845197-104.921884-63.882521v177.837242h-22.843157v-248.925147h-119.619825v-22.242709h278.373241zM3396.660004 379.927391v-26.28921h21.929431v26.28921h56.677136v20.676321h-56.677136v28.821538h75.160514a1409.33143 1409.33143 0 0 1-1.879666-76.387518h21.929431c0 28.482154 0.600449 53.831532 1.85356 76.387518h78.893738v20.336936h-77.666735c1.879666 27.881705 4.385886 50.724862 7.83194 68.268408 1.879666 9.08505 3.785437 17.543545 5.638997 25.662655 11.3041-22.52988 20.363043-48.845197 27.255149-78.267183l20.049766 9.08505c-10.024883 39.133592-22.869264 72.001632-38.533143 98.316948 2.532327 7.205384 5.325719 13.470936 8.171324 19.109933 8.145217 15.324495 14.69794 23.156435 19.710381 23.156435 5.012441-0.313278 9.398328-16.890883 13.157659-50.098307l19.42321 10.33816c-6.918213 41.639812-16.603712 62.629411-29.761371 62.629411-10.651438 0-22.242709-9.711605-34.434428-28.508261a109.255558 109.255558 0 0 1-9.08505-16.890883c-16.290434 21.276769-34.747705 37.253926-55.424026 48.53192l-12.217826-18.1701c22.52988-12.504997 41.95309-30.675097 57.930247-54.797471a453.521517 453.521517 0 0 1-11.904548-45.399144c-4.385886-20.676321-7.83194-44.772588-9.685499-72.941464h-175.670406v-20.336937h77.327351v-28.821538h-61.063023v-20.67632h61.063023z m78.606567 217.936774c-15.663879 1.879666-31.954314 4.072609-48.845196 5.952274v36.966755h-22.242709v-34.773812c-22.52988 2.192943-46.338976 4.072609-71.375076 5.952274l-2.819499-20.989598c26.315317-1.566388 51.03814-3.446053 74.220682-5.325719v-27.855599h-61.063023l-4.385886-18.483377c8.771772-10.651438 16.890883-23.469712 24.435651-39.133592h-34.434428v-20.049765h43.206201c3.132776-7.518662 5.952274-15.663879 8.771772-23.809097l21.590047 4.072609a638.825209 638.825209 0 0 1-7.492556 19.710381h82.026515v20.049766h-90.798287a276.937385 276.937385 0 0 1-22.242708 38.507036h40.386702v-24.435651h22.242708v24.435651h47.592087v19.109933h-47.592087v25.662655c17.230267-1.879666 33.494595-3.759331 48.845197-5.638996v20.075872z m107.088722-194.754232l-16.890883 11.904548c-8.771772-14.097491-20.989598-29.735264-36.627371-46.965531l17.230267-10.964716c15.637773 17.517438 27.829492 32.86804 36.287987 46.025699z"
        fill="#FFFFFF" p-id="3178"></path>
</svg>
